<svg width="1920" height="1080" xmlns="http://www.w3.org/2000/svg">
  <rect width="1920" height="1080" fill="transparent"/>

  <!-- 작은 별들 -->
  <circle cx="120" cy="80" r="1" fill="white" opacity="0.8"/>
  <circle cx="340" cy="150" r="1" fill="white" opacity="0.6"/>
  <circle cx="580" cy="200" r="1" fill="white" opacity="0.9"/>
  <circle cx="820" cy="120" r="1" fill="white" opacity="0.7"/>
  <circle cx="1020" cy="180" r="1" fill="white" opacity="0.8"/>
  <circle cx="1280" cy="90" r="1" fill="white" opacity="0.6"/>
  <circle cx="1480" cy="160" r="1" fill="white" opacity="0.9"/>
  <circle cx="1680" cy="110" r="1" fill="white" opacity="0.7"/>
  <circle cx="1820" cy="200" r="1" fill="white" opacity="0.8"/>

  <circle cx="200" cy="350" r="1" fill="white" opacity="0.7"/>
  <circle cx="450" cy="380" r="1" fill="white" opacity="0.9"/>
  <circle cx="680" cy="420" r="1" fill="white" opacity="0.6"/>
  <circle cx="920" cy="360" r="1" fill="white" opacity="0.8"/>
  <circle cx="1150" cy="400" r="1" fill="white" opacity="0.7"/>
  <circle cx="1380" cy="340" r="1" fill="white" opacity="0.9"/>
  <circle cx="1620" cy="390" r="1" fill="white" opacity="0.6"/>
  <circle cx="1780" cy="370" r="1" fill="white" opacity="0.8"/>

  <circle cx="180" cy="580" r="1" fill="white" opacity="0.8"/>
  <circle cx="420" cy="620" r="1" fill="white" opacity="0.6"/>
  <circle cx="640" cy="560" r="1" fill="white" opacity="0.9"/>
  <circle cx="880" cy="600" r="1" fill="white" opacity="0.7"/>
  <circle cx="1100" cy="640" r="1" fill="white" opacity="0.8"/>
  <circle cx="1340" cy="580" r="1" fill="white" opacity="0.6"/>
  <circle cx="1560" cy="620" r="1" fill="white" opacity="0.9"/>
  <circle cx="1740" cy="590" r="1" fill="white" opacity="0.7"/>

  <circle cx="240" cy="820" r="1" fill="white" opacity="0.7"/>
  <circle cx="480" cy="860" r="1" fill="white" opacity="0.9"/>
  <circle cx="720" cy="800" r="1" fill="white" opacity="0.6"/>
  <circle cx="960" cy="840" r="1" fill="white" opacity="0.8"/>
  <circle cx="1200" cy="880" r="1" fill="white" opacity="0.7"/>
  <circle cx="1440" cy="820" r="1" fill="white" opacity="0.9"/>
  <circle cx="1680" cy="860" r="1" fill="white" opacity="0.6"/>
  <circle cx="1860" cy="830" r="1" fill="white" opacity="0.8"/>

  <!-- 중간 크기 별들 -->
  <circle cx="280" cy="240" r="1.5" fill="white" opacity="0.9"/>
  <circle cx="520" cy="480" r="1.5" fill="white" opacity="0.8"/>
  <circle cx="760" cy="720" r="1.5" fill="white" opacity="0.9"/>
  <circle cx="1000" cy="960" r="1.5" fill="white" opacity="0.8"/>
  <circle cx="1240" cy="240" r="1.5" fill="white" opacity="0.9"/>
  <circle cx="1480" cy="480" r="1.5" fill="white" opacity="0.8"/>
  <circle cx="1720" cy="720" r="1.5" fill="white" opacity="0.9"/>

  <!-- 큰 별들 (반짝임) -->
  <g opacity="0.9">
    <circle cx="400" cy="100" r="2" fill="white"/>
    <circle cx="400" cy="100" r="3" fill="white" opacity="0.3"/>
  </g>
  <g opacity="0.8">
    <circle cx="900" cy="250" r="2" fill="white"/>
    <circle cx="900" cy="250" r="3" fill="white" opacity="0.3"/>
  </g>
  <g opacity="0.9">
    <circle cx="1400" cy="500" r="2" fill="white"/>
    <circle cx="1400" cy="500" r="3" fill="white" opacity="0.3"/>
  </g>
  <g opacity="0.8">
    <circle cx="600" cy="750" r="2" fill="white"/>
    <circle cx="600" cy="750" r="3" fill="white" opacity="0.3"/>
  </g>
  <g opacity="0.9">
    <circle cx="1100" cy="900" r="2" fill="white"/>
    <circle cx="1100" cy="900" r="3" fill="white" opacity="0.3"/>
  </g>
</svg>
